<?xml version="1.0" encoding="UTF-8"?>
<!-- Created with Inkscape (http://www.inkscape.org/) -->
<svg width="100" height="100" version="1.1" viewBox="0 0 100 100" xml:space="preserve" xmlns="http://www.w3.org/2000/svg"><g transform="translate(-18.715 26.159)"><g transform="matrix(1.8158 0 0 1.8158 83.058 37.158)" stroke-width=".55071"><g transform="matrix(2.1406 0 0 2.1406 -7.8992 13.961)" fill="#379"><path d="m1.5-18.706v-3.4629l9.4103 5.433-2.999 1.7315-6.4113-3.7016"/><path d="m-1.5-18.737v-3.4322l-9.4103 5.433 2.9724 1.7161 6.4379-3.7169"/><path d="m-4.3356-14.068 4.3356-2.5032 5.3122 3.067-4.3356 2.5032-5.3122-3.067"/></g><g transform="matrix(2.1406 0 0 2.1406 -7.8992 13.961)" fill="#204b60"><path d="m1.5 2.272 9.4103-5.433v-13.575l-2.999 1.7315v3.7512l-2.5991-1.5006v-0.75l-4.3356 2.5032 6.9081 3.9884v2.366l-6.3847 3.6862v3.2321"/><path d="m4.3356-5.8293-4.3356 2.5032v-5.0063l4.3356 2.5032"/></g><g transform="matrix(2.1406 0 0 2.1406 -7.8992 13.961)" fill="#2e6785"><path d="m-1.5 2.272-9.4103-5.433v-13.575l2.9724 1.7161v2.1044l7.9379 4.5829v5.0063l-5.3654-3.0977v-0.75l-2.799-1.616v3.9821l6.6645 3.8477v3.2321" fill="#2e6785"/></g></g></g></svg>
