<?xml version="1.0" encoding="UTF-8"?>
<!-- Created with Inkscape (http://www.inkscape.org/) -->
<svg width="77.014mm" height="10.286mm" version="1.1" viewBox="0 0 77.014 10.286" xmlns="http://www.w3.org/2000/svg">
 <g transform="translate(-86.689 -189.11)">
  <g transform="translate(13.778 95.768)">
   <path d="m73.039 101.42c2.6095 0.14286 4.3762 0.21429 5.3 0.21429 0.21905 0 0.39286-0.0643 0.52143-0.19286 0.12857-0.12857 0.19286-0.30238 0.19286-0.52143v-1.2857h-3.2857c-1 0-1.7262-0.22619-2.1786-0.67857s-0.67857-1.1786-0.67857-2.1786v-0.42857c0-1 0.22619-1.7262 0.67857-2.1786s1.1786-0.67857 2.1786-0.67857h5.0143v2h-4.4429c-0.57143 0-0.85714 0.28571-0.85714 0.85714v0.28571c0 0.57143 0.28571 0.85714 0.85714 0.85714h2.5714c0.93333 0 1.619 0.21905 2.0571 0.65714s0.65714 1.1238 0.65714 2.0571v0.71428c0 0.93334-0.21905 1.619-0.65714 2.0572-0.4381 0.43809-1.1238 0.65714-2.0571 0.65714-0.48571 0-1-9e-3 -1.5429-0.0286l-1.3143-0.0571c-0.97143-0.0476-1.9762-0.11429-3.0143-0.2v-1.9286"/>
   <path d="m85.482 103.49h-2.5714v-10h2.5714v3.9286h1.2857l2.2286-3.9286h2.7143l-2.8 4.9286 2.7857 5.0714h-2.7143l-2.2143-4.0714h-1.2857v4.0714"/>
   <path transform="scale(.26458)" d="m359.58 352.81c-3.7795 0-6.5246 0.85467-8.2344 2.5644-1.7098 1.7098-2.5644 4.4548-2.5644 8.2344v17.277c0 3.7795 0.85467 6.5246 2.5644 8.2344 1.7098 1.7098 4.4548 2.5644 8.2344 2.5644h13.498c3.7795 0 6.5246-0.85467 8.2344-2.5644 1.7098-1.7098 2.5644-4.4548 2.5644-8.2344v-17.277c0-3.7795-0.85467-6.5246-2.5644-8.2344-1.7098-1.7098-4.4548-2.5644-8.2344-2.5644zm2.1602 7.5586h9.1777c2.1597 0 3.2402 1.0805 3.2402 3.2402v17.277c0 2.1597-1.0805 3.2402-3.2402 3.2402h-9.1777c-2.1597 0-3.2402-1.0805-3.2402-3.2402v-17.277c0-2.1597 1.0805-3.2402 3.2402-3.2402z"/>
   <path transform="scale(.26458)" d="m399 352.81c-3.7795 0-6.5246 0.85467-8.2344 2.5644-1.7098 1.7098-2.5644 4.4548-2.5644 8.2344v17.277c0 3.7795 0.85467 6.5246 2.5644 8.2344 1.7098 1.7098 4.4548 2.5644 8.2344 2.5644h13.498c3.7795 0 6.5246-0.85467 8.2344-2.5644 1.7098-1.7098 2.5644-4.4548 2.5644-8.2344v-17.277c0-3.7795-0.85467-6.5246-2.5644-8.2344-1.7098-1.7098-4.4548-2.5644-8.2344-2.5644zm2.1582 7.5586h9.1797c2.1597 0 3.2402 1.0805 3.2402 3.2402v17.277c0 2.1597-1.0805 3.2402-3.2402 3.2402h-9.1797c-2.1597 0-3.2383-1.0805-3.2383-3.2402v-17.277c0-2.1597 1.0785-3.2402 3.2383-3.2402z"/>
   <path d="m113.12 101.42c2.6095 0.14286 4.3762 0.21429 5.3 0.21429 0.21905 0 0.39286-0.0643 0.52143-0.19286 0.12857-0.12857 0.19286-0.30238 0.19286-0.52143v-1.2857h-3.2857c-1 0-1.7262-0.22619-2.1786-0.67857s-0.67857-1.1786-0.67857-2.1786v-0.42857c0-1 0.22619-1.7262 0.67857-2.1786s1.1786-0.67857 2.1786-0.67857h5.0143v2h-4.4429c-0.57143 0-0.85714 0.28571-0.85714 0.85714v0.28571c0 0.57143 0.28571 0.85714 0.85714 0.85714h2.5714c0.93333 0 1.619 0.21905 2.0571 0.65714 0.4381 0.4381 0.65715 1.1238 0.65715 2.0571v0.71428c0 0.93334-0.21905 1.619-0.65715 2.0572-0.43809 0.43809-1.1238 0.65714-2.0571 0.65714-0.48571 0-1-9e-3 -1.5429-0.0286l-1.3143-0.0572c-0.97143-0.0476-1.9762-0.11428-3.0143-0.2v-1.9286"/>
   <path d="m127.85 103.49h-2.5714v-8h-3v-2h8.5714v2h-3v8"/>
   <path d="m139.78 103.49h-7.9286v-10h7.9286v2h-5.3572v1.9286h4.2143v2h-4.2143v2.0714h5.3572v2"/>
   <path transform="scale(.26458)" d="m532.63 353.35v37.795h9.7188v-11.34h7.5586l6.209 11.34h10.529l-6.75-11.879c2.1597-0.5399 3.7347-1.6372 4.7246-3.293 0.98986-1.6558 1.4863-3.9772 1.4863-6.9648v-4.8594c0-3.7795-0.85662-6.5246-2.5664-8.2344-1.7098-1.7098-4.4529-2.5644-8.2324-2.5644zm9.7188 7.5586h10.799c2.1597 0 3.2383 1.0805 3.2383 3.2402v4.8594c0 2.1597-1.0786 3.2383-3.2383 3.2383h-10.799z"/>
  </g>
 </g>
</svg>
